<svg width="912" height="459" viewBox="0 0 912 459" fill="none" xmlns="http://www.w3.org/2000/svg">
<mask id="path-1-outside-1_151_4" maskUnits="userSpaceOnUse" x="-11" y="-9" width="935" height="480" fill="black">
<rect fill="white" x="-11" y="-9" width="935" height="480"/>
<path d="M134.594 454C103.794 443.733 80.4604 434.167 64.5938 425.3C48.7271 416.433 40.7938 409.2 40.7938 403.6C40.7938 398.467 41.2604 393.1 42.1938 387.5C43.1271 381.9 44.0604 373.733 44.9938 363C45.9271 352.267 46.3938 336.867 46.3938 316.8V181.7C46.3938 159.3 47.3271 137.367 49.1938 115.9C51.0604 94.4333 54.5604 77.4 59.6938 64.8H34.4938L0.19375 17.9L5.09375 6.69996H94.6938L133.894 61.3C128.76 75.7666 124.56 93.5 121.294 114.5C118.494 135.5 117.094 159.067 117.094 185.2V332.2C117.094 352.267 116.394 368.367 114.994 380.5C114.06 392.167 113.594 401.267 113.594 407.8C113.594 415.733 123.627 424.367 143.694 433.7L134.594 454ZM297.677 451.9C286.011 447.233 272.711 441.4 257.777 434.4C243.311 426.933 230.711 419.933 219.977 413.4C209.244 406.4 203.877 401.267 203.877 398C203.877 392.867 205.277 381.433 208.077 363.7C211.344 345.967 212.977 324.033 212.977 297.9V221.6C212.977 182.867 214.144 151.367 216.477 127.1C218.811 102.367 222.311 81.6 226.977 64.8H198.977L167.477 19.3L173.777 6.69996H306.777C314.711 23.0333 322.644 43.1 330.577 66.9C338.977 90.2333 346.911 115.433 354.377 142.5C361.844 169.1 368.377 194.767 373.977 219.5C382.377 179.833 393.577 141.8 407.577 105.4C421.577 68.5333 437.677 35.6333 455.877 6.69996H520.277L560.177 62.7C556.911 73.4333 554.344 86.5 552.477 101.9C550.611 116.833 549.677 136.667 549.677 161.4V307.7C549.677 328.7 548.977 345.5 547.577 358.1C546.644 370.233 545.477 379.8 544.077 386.8C542.677 393.8 541.977 399.867 541.977 405C541.977 408.267 544.777 412.233 550.377 416.9C555.977 421.567 563.444 426.7 572.777 432.3L563.677 451.9C552.011 447.233 538.711 441.4 523.777 434.4C509.311 426.933 496.711 419.933 485.977 413.4C475.244 406.4 469.877 401.267 469.877 398C469.877 391.467 471.277 380.733 474.077 365.8C477.344 350.4 478.977 327.767 478.977 297.9V191.5C478.977 169.1 479.444 148.333 480.377 129.2C481.777 109.6 483.877 92.3333 486.677 77.4C476.411 100.733 466.611 127.8 457.277 158.6C447.944 189.4 439.311 221.133 431.377 253.8C423.911 286.467 418.077 317.733 413.877 347.6L401.977 354.6L345.977 323.8C342.711 297.2 338.044 269.2 331.977 239.8C325.911 209.933 319.144 181.233 311.677 153.7C304.211 126.167 296.744 101.433 289.277 79.5C287.877 93.9667 286.711 110.533 285.777 129.2C284.844 147.867 284.144 166.533 283.677 185.2C283.677 203.4 283.677 219.5 283.677 233.5V307.7C283.677 328.7 282.977 345.5 281.577 358.1C280.644 370.233 279.477 379.8 278.077 386.8C276.677 393.8 275.977 399.867 275.977 405C275.977 408.267 278.777 412.233 284.377 416.9C289.977 421.567 297.444 426.7 306.777 432.3L297.677 451.9ZM897.255 458.2C887.921 451.667 879.521 445.6 872.055 440C864.588 434.4 857.355 428.1 850.355 421.1C841.955 430.433 830.988 437.433 817.455 442.1C803.921 446.767 788.988 449.1 772.655 449.1C759.121 449.1 743.721 446.067 726.455 440C709.655 433.933 693.321 426.233 677.455 416.9C661.588 407.1 648.521 397.067 638.255 386.8C627.988 376.533 622.855 367.433 622.855 359.5C622.855 347.833 623.555 333.367 624.955 316.1C626.355 298.367 627.055 279.233 627.055 258.7V127.8C627.055 80.6666 636.388 47.7666 655.055 29.1C673.721 9.96665 701.255 0.399999 737.655 0.399999C751.655 0.399999 766.355 4.13333 781.755 11.6C797.155 18.6 811.388 27.7 824.455 38.9C837.988 50.1 848.721 61.7667 856.655 73.9C865.055 86.0333 869.255 97.2333 869.255 107.5C869.255 114.967 868.555 124.533 867.155 136.2C865.755 147.867 863.655 159.067 860.855 169.8L793.655 152.3C799.721 128.033 802.755 106.333 802.755 87.2C802.755 78.3333 800.655 72.5 796.455 69.7C792.255 66.9 784.788 65.5 774.055 65.5C759.121 65.5 745.821 67.3667 734.155 71.1C722.955 74.8333 714.321 82.5333 708.255 94.2C702.188 105.867 699.155 123.6 699.155 147.4V282.5C699.155 304.9 698.221 322.4 696.355 335C694.955 347.133 694.255 356.233 694.255 362.3C694.255 375.367 702.888 381.9 720.155 381.9C749.088 381.9 770.088 377.467 783.155 368.6C796.221 359.267 802.755 344.567 802.755 324.5C802.755 301.167 803.455 283.433 804.855 271.3H763.555L728.555 223.7L734.155 211.8H833.555L875.555 267.8C873.688 286.467 872.288 304.667 871.355 322.4C870.421 339.667 869.955 359.967 869.955 383.3C869.955 392.167 872.755 401.033 878.355 409.9C884.421 418.3 895.388 427.867 911.255 438.6L897.255 458.2Z"/>
</mask>
<g filter="url(#filter0_i_151_4)">
<path d="M134.594 454C103.794 443.733 80.4604 434.167 64.5938 425.3C48.7271 416.433 40.7938 409.2 40.7938 403.6C40.7938 398.467 41.2604 393.1 42.1938 387.5C43.1271 381.9 44.0604 373.733 44.9938 363C45.9271 352.267 46.3938 336.867 46.3938 316.8V181.7C46.3938 159.3 47.3271 137.367 49.1938 115.9C51.0604 94.4333 54.5604 77.4 59.6938 64.8H34.4938L0.19375 17.9L5.09375 6.69996H94.6938L133.894 61.3C128.76 75.7666 124.56 93.5 121.294 114.5C118.494 135.5 117.094 159.067 117.094 185.2V332.2C117.094 352.267 116.394 368.367 114.994 380.5C114.06 392.167 113.594 401.267 113.594 407.8C113.594 415.733 123.627 424.367 143.694 433.7L134.594 454ZM297.677 451.9C286.011 447.233 272.711 441.4 257.777 434.4C243.311 426.933 230.711 419.933 219.977 413.4C209.244 406.4 203.877 401.267 203.877 398C203.877 392.867 205.277 381.433 208.077 363.7C211.344 345.967 212.977 324.033 212.977 297.9V221.6C212.977 182.867 214.144 151.367 216.477 127.1C218.811 102.367 222.311 81.6 226.977 64.8H198.977L167.477 19.3L173.777 6.69996H306.777C314.711 23.0333 322.644 43.1 330.577 66.9C338.977 90.2333 346.911 115.433 354.377 142.5C361.844 169.1 368.377 194.767 373.977 219.5C382.377 179.833 393.577 141.8 407.577 105.4C421.577 68.5333 437.677 35.6333 455.877 6.69996H520.277L560.177 62.7C556.911 73.4333 554.344 86.5 552.477 101.9C550.611 116.833 549.677 136.667 549.677 161.4V307.7C549.677 328.7 548.977 345.5 547.577 358.1C546.644 370.233 545.477 379.8 544.077 386.8C542.677 393.8 541.977 399.867 541.977 405C541.977 408.267 544.777 412.233 550.377 416.9C555.977 421.567 563.444 426.7 572.777 432.3L563.677 451.9C552.011 447.233 538.711 441.4 523.777 434.4C509.311 426.933 496.711 419.933 485.977 413.4C475.244 406.4 469.877 401.267 469.877 398C469.877 391.467 471.277 380.733 474.077 365.8C477.344 350.4 478.977 327.767 478.977 297.9V191.5C478.977 169.1 479.444 148.333 480.377 129.2C481.777 109.6 483.877 92.3333 486.677 77.4C476.411 100.733 466.611 127.8 457.277 158.6C447.944 189.4 439.311 221.133 431.377 253.8C423.911 286.467 418.077 317.733 413.877 347.6L401.977 354.6L345.977 323.8C342.711 297.2 338.044 269.2 331.977 239.8C325.911 209.933 319.144 181.233 311.677 153.7C304.211 126.167 296.744 101.433 289.277 79.5C287.877 93.9667 286.711 110.533 285.777 129.2C284.844 147.867 284.144 166.533 283.677 185.2C283.677 203.4 283.677 219.5 283.677 233.5V307.7C283.677 328.7 282.977 345.5 281.577 358.1C280.644 370.233 279.477 379.8 278.077 386.8C276.677 393.8 275.977 399.867 275.977 405C275.977 408.267 278.777 412.233 284.377 416.9C289.977 421.567 297.444 426.7 306.777 432.3L297.677 451.9ZM897.255 458.2C887.921 451.667 879.521 445.6 872.055 440C864.588 434.4 857.355 428.1 850.355 421.1C841.955 430.433 830.988 437.433 817.455 442.1C803.921 446.767 788.988 449.1 772.655 449.1C759.121 449.1 743.721 446.067 726.455 440C709.655 433.933 693.321 426.233 677.455 416.9C661.588 407.1 648.521 397.067 638.255 386.8C627.988 376.533 622.855 367.433 622.855 359.5C622.855 347.833 623.555 333.367 624.955 316.1C626.355 298.367 627.055 279.233 627.055 258.7V127.8C627.055 80.6666 636.388 47.7666 655.055 29.1C673.721 9.96665 701.255 0.399999 737.655 0.399999C751.655 0.399999 766.355 4.13333 781.755 11.6C797.155 18.6 811.388 27.7 824.455 38.9C837.988 50.1 848.721 61.7667 856.655 73.9C865.055 86.0333 869.255 97.2333 869.255 107.5C869.255 114.967 868.555 124.533 867.155 136.2C865.755 147.867 863.655 159.067 860.855 169.8L793.655 152.3C799.721 128.033 802.755 106.333 802.755 87.2C802.755 78.3333 800.655 72.5 796.455 69.7C792.255 66.9 784.788 65.5 774.055 65.5C759.121 65.5 745.821 67.3667 734.155 71.1C722.955 74.8333 714.321 82.5333 708.255 94.2C702.188 105.867 699.155 123.6 699.155 147.4V282.5C699.155 304.9 698.221 322.4 696.355 335C694.955 347.133 694.255 356.233 694.255 362.3C694.255 375.367 702.888 381.9 720.155 381.9C749.088 381.9 770.088 377.467 783.155 368.6C796.221 359.267 802.755 344.567 802.755 324.5C802.755 301.167 803.455 283.433 804.855 271.3H763.555L728.555 223.7L734.155 211.8H833.555L875.555 267.8C873.688 286.467 872.288 304.667 871.355 322.4C870.421 339.667 869.955 359.967 869.955 383.3C869.955 392.167 872.755 401.033 878.355 409.9C884.421 418.3 895.388 427.867 911.255 438.6L897.255 458.2Z" fill="white"/>
</g>
<path d="M134.594 454L131.748 462.538L139.475 465.114L142.806 457.682L134.594 454ZM64.5938 425.3L60.2034 433.156L60.2034 433.156L64.5938 425.3ZM42.1938 387.5L51.0713 388.98L51.0713 388.98L42.1938 387.5ZM44.9938 363L53.9599 363.78L53.9599 363.78L44.9938 363ZM49.1938 115.9L58.1599 116.68L58.1599 116.68L49.1938 115.9ZM59.6938 64.8L68.0286 68.1956L73.0787 55.8H59.6938V64.8ZM34.4938 64.8L27.2292 70.1128L29.9258 73.8H34.4938V64.8ZM0.19375 17.9L-8.05167 14.2926L-10.1264 19.0348L-7.07078 23.2129L0.19375 17.9ZM5.09375 6.69996V-2.30004H-0.792394L-3.15167 3.0926L5.09375 6.69996ZM94.6938 6.69996L102.005 1.4511L99.3115 -2.30004H94.6938V6.69996ZM133.894 61.3L142.376 64.3097L143.949 59.8742L141.205 56.0511L133.894 61.3ZM121.294 114.5L112.401 113.117L112.386 113.213L112.373 113.311L121.294 114.5ZM114.994 380.5L106.053 379.468L106.035 379.625L106.022 379.782L114.994 380.5ZM143.694 433.7L151.906 437.382L155.537 429.283L147.489 425.54L143.694 433.7ZM137.44 445.462C106.828 435.258 84.1184 425.901 68.9841 417.444L60.2034 433.156C76.8025 442.432 100.759 452.209 131.748 462.538L137.44 445.462ZM68.9841 417.444C61.2999 413.149 56.0337 409.516 52.8075 406.574C49.1701 403.258 49.7938 402.348 49.7938 403.6H31.7938C31.7938 410.452 36.3841 415.959 40.68 419.876C45.3872 424.167 52.021 428.584 60.2034 433.156L68.9841 417.444ZM49.7938 403.6C49.7938 399.011 50.211 394.141 51.0713 388.98L33.3162 386.02C32.3098 392.059 31.7938 397.922 31.7938 403.6H49.7938ZM51.0713 388.98C52.0636 383.026 53.0208 374.579 53.9599 363.78L36.0276 362.22C35.1 372.887 34.1906 380.774 33.3162 386.02L51.0713 388.98ZM53.9599 363.78C54.9274 352.654 55.3938 336.946 55.3938 316.8H37.3938C37.3938 336.787 36.9268 351.879 36.0276 362.22L53.9599 363.78ZM55.3938 316.8V181.7H37.3938V316.8H55.3938ZM55.3938 181.7C55.3938 159.55 56.3167 137.877 58.1599 116.68L40.2276 115.12C38.3375 136.856 37.3938 159.05 37.3938 181.7H55.3938ZM58.1599 116.68C59.9884 95.6523 63.3743 79.6198 68.0286 68.1956L51.3589 61.4043C45.7465 75.1801 42.1325 93.2143 40.2276 115.12L58.1599 116.68ZM59.6938 55.8H34.4938V73.8H59.6938V55.8ZM41.7583 59.4871L7.45828 12.5871L-7.07078 23.2129L27.2292 70.1128L41.7583 59.4871ZM8.43917 21.5073L13.3392 10.3073L-3.15167 3.0926L-8.05167 14.2926L8.43917 21.5073ZM5.09375 15.7H94.6938V-2.30004H5.09375V15.7ZM87.3828 11.9488L126.583 66.5488L141.205 56.0511L102.005 1.4511L87.3828 11.9488ZM125.412 58.2903C120.035 73.4427 115.723 91.7571 112.401 113.117L130.187 115.883C133.398 95.2429 137.486 78.0906 142.376 64.3097L125.412 58.2903ZM112.373 113.311C109.51 134.783 108.094 158.757 108.094 185.2H126.094C126.094 159.377 127.478 136.217 130.215 115.689L112.373 113.311ZM108.094 185.2V332.2H126.094V185.2H108.094ZM108.094 332.2C108.094 352.111 107.397 367.824 106.053 379.468L123.934 381.532C125.391 368.909 126.094 352.423 126.094 332.2H108.094ZM106.022 379.782C105.082 391.533 104.594 400.91 104.594 407.8H122.594C122.594 401.623 123.038 392.8 123.965 381.218L106.022 379.782ZM104.594 407.8C104.594 415.707 109.53 422.127 115.249 427.047C121.171 432.144 129.545 437.045 139.898 441.86L147.489 425.54C137.775 421.021 131.099 416.94 126.989 413.403C122.674 409.69 122.594 407.826 122.594 407.8H104.594ZM135.481 430.018L126.381 450.318L142.806 457.682L151.906 437.382L135.481 430.018ZM297.677 451.9L294.335 460.256L302.25 463.422L305.84 455.69L297.677 451.9ZM257.777 434.4L253.65 442.398L253.802 442.476L253.957 442.549L257.777 434.4ZM219.977 413.4L215.061 420.938L215.178 421.015L215.298 421.088L219.977 413.4ZM208.077 363.7L199.226 362.07L199.205 362.183L199.187 362.296L208.077 363.7ZM216.477 127.1L225.436 127.961L225.437 127.953L225.438 127.945L216.477 127.1ZM226.977 64.8L235.649 67.2088L238.818 55.8H226.977V64.8ZM198.977 64.8L191.578 69.9229L194.262 73.8H198.977V64.8ZM167.477 19.3L159.427 15.275L157.044 20.0414L160.078 24.4229L167.477 19.3ZM173.777 6.69996V-2.30004H168.215L165.727 2.67504L173.777 6.69996ZM306.777 6.69996L314.873 2.76783L312.411 -2.30004H306.777V6.69996ZM330.577 66.9L322.039 69.746L322.073 69.8477L322.109 69.9485L330.577 66.9ZM354.377 142.5L345.701 144.893L345.707 144.913L345.712 144.932L354.377 142.5ZM373.977 219.5L365.2 221.487L382.782 221.365L373.977 219.5ZM407.577 105.4L415.977 108.631L415.984 108.613L415.991 108.595L407.577 105.4ZM455.877 6.69996V-2.30004H450.906L448.259 1.9079L455.877 6.69996ZM520.277 6.69996L527.607 1.47749L524.916 -2.30004H520.277V6.69996ZM560.177 62.7L568.787 65.3205L570.077 61.084L567.507 57.4775L560.177 62.7ZM552.477 101.9L561.408 103.016L561.41 103L561.412 102.983L552.477 101.9ZM547.577 358.1L538.632 357.106L538.616 357.258L538.604 357.41L547.577 358.1ZM544.077 386.8L552.903 388.565L552.903 388.565L544.077 386.8ZM550.377 416.9L556.139 409.986L556.139 409.986L550.377 416.9ZM572.777 432.3L580.94 436.09L584.349 428.748L577.408 424.583L572.777 432.3ZM563.677 451.9L560.335 460.256L568.25 463.422L571.84 455.69L563.677 451.9ZM523.777 434.4L519.65 442.398L519.802 442.476L519.957 442.549L523.777 434.4ZM485.977 413.4L481.061 420.938L481.178 421.015L481.298 421.088L485.977 413.4ZM474.077 365.8L465.273 363.932L465.251 364.037L465.232 364.141L474.077 365.8ZM480.377 129.2L471.4 128.559L471.393 128.66L471.388 128.761L480.377 129.2ZM486.677 77.4L495.523 79.0586L478.44 73.7753L486.677 77.4ZM431.377 253.8L422.632 251.676L422.617 251.735L422.604 251.795L431.377 253.8ZM413.877 347.6L418.441 355.357L422.185 353.155L422.79 348.853L413.877 347.6ZM401.977 354.6L397.64 362.486L402.127 364.954L406.541 362.357L401.977 354.6ZM345.977 323.8L337.044 324.897L337.606 329.467L341.64 331.686L345.977 323.8ZM331.977 239.8L323.157 241.592L323.16 241.605L323.163 241.619L331.977 239.8ZM311.677 153.7L320.364 151.344L320.364 151.344L311.677 153.7ZM289.277 79.5L297.797 76.5996L280.319 78.6331L289.277 79.5ZM285.777 129.2L276.789 128.751L276.789 128.751L285.777 129.2ZM283.677 185.2L274.68 184.975L274.677 185.088V185.2H283.677ZM281.577 358.1L272.632 357.106L272.616 357.258L272.604 357.41L281.577 358.1ZM278.077 386.8L286.903 388.565L286.903 388.565L278.077 386.8ZM284.377 416.9L290.139 409.986L290.139 409.986L284.377 416.9ZM306.777 432.3L314.94 436.09L318.349 428.748L311.408 424.583L306.777 432.3ZM301.02 443.544C289.555 438.958 276.419 433.198 261.597 426.251L253.957 442.549C269.003 449.602 282.466 455.509 294.335 460.256L301.02 443.544ZM261.905 426.402C247.575 419.006 235.167 412.109 224.657 405.712L215.298 421.088C226.255 427.757 239.047 434.861 253.65 442.398L261.905 426.402ZM224.894 405.862C219.71 402.481 216.218 399.8 214.123 397.796C213.074 396.792 212.613 396.182 212.468 395.954C212.27 395.646 212.877 396.42 212.877 398H194.877C194.877 401.214 196.155 403.854 197.299 405.645C198.495 407.518 200.047 409.241 201.681 410.804C204.953 413.933 209.511 417.319 215.061 420.938L224.894 405.862ZM212.877 398C212.877 393.715 214.136 383.034 216.967 365.104L199.187 362.296C196.419 379.833 194.877 392.018 194.877 398H212.877ZM216.928 365.33C220.327 346.879 221.977 324.36 221.977 297.9H203.977C203.977 323.707 202.361 345.054 199.226 362.07L216.928 365.33ZM221.977 297.9V221.6H203.977V297.9H221.977ZM221.977 221.6C221.977 183.008 223.141 151.826 225.436 127.961L207.519 126.239C205.147 150.907 203.977 182.725 203.977 221.6H221.977ZM225.438 127.945C227.74 103.538 231.17 83.3326 235.649 67.2088L218.306 62.3912C213.451 79.8673 209.881 101.195 207.517 126.255L225.438 127.945ZM226.977 55.8H198.977V73.8H226.977V55.8ZM206.377 59.6771L174.877 14.1771L160.078 24.4229L191.578 69.9229L206.377 59.6771ZM175.527 23.3249L181.827 10.7249L165.727 2.67504L159.427 15.275L175.527 23.3249ZM173.777 15.7H306.777V-2.30004H173.777V15.7ZM298.682 10.6321C306.394 26.5093 314.187 46.1884 322.039 69.746L339.116 64.0539C331.101 40.0116 323.028 19.5573 314.873 2.76783L298.682 10.6321ZM322.109 69.9485C330.422 93.0402 338.288 118.019 345.701 144.893L363.053 140.107C355.533 112.847 347.532 87.4264 339.045 63.8515L322.109 69.9485ZM345.712 144.932C353.141 171.398 359.636 196.916 365.2 221.487L382.755 217.513C377.119 192.617 370.547 166.802 363.042 140.068L345.712 144.932ZM382.782 221.365C391.087 182.145 402.155 144.57 415.977 108.631L399.177 102.169C385 139.03 373.667 177.522 365.173 217.635L382.782 221.365ZM415.991 108.595C429.811 72.2028 445.657 39.8507 463.496 11.492L448.259 1.9079C429.698 31.4159 413.344 64.8639 399.164 102.205L415.991 108.595ZM455.877 15.7H520.277V-2.30004H455.877V15.7ZM512.948 11.9224L552.848 67.9225L567.507 57.4775L527.607 1.47749L512.948 11.9224ZM551.567 60.0795C548.102 71.4641 545.451 85.0778 543.543 100.817L561.412 102.983C563.238 87.9221 565.719 75.4026 568.787 65.3205L551.567 60.0795ZM543.547 100.784C541.614 116.246 540.677 136.498 540.677 161.4H558.677C558.677 136.835 559.607 117.421 561.408 103.016L543.547 100.784ZM540.677 161.4V307.7H558.677V161.4H540.677ZM540.677 307.7C540.677 328.553 539.98 344.979 538.632 357.106L556.522 359.094C557.975 346.021 558.677 328.847 558.677 307.7H540.677ZM538.604 357.41C537.682 369.395 536.549 378.551 535.252 385.035L552.903 388.565C554.406 381.049 555.606 371.071 556.551 358.79L538.604 357.41ZM535.252 385.035C533.777 392.409 532.977 399.095 532.977 405H550.977C550.977 400.638 551.577 395.191 552.903 388.565L535.252 385.035ZM532.977 405C532.977 409.196 534.747 412.813 536.725 415.615C538.743 418.474 541.482 421.202 544.616 423.814L556.139 409.986C553.673 407.931 552.212 406.342 551.43 405.235C550.608 404.07 550.977 404.071 550.977 405H532.977ZM544.616 423.814C550.699 428.883 558.59 434.283 568.147 440.017L577.408 424.583C568.298 419.117 561.256 414.25 556.139 409.986L544.616 423.814ZM564.614 428.51L555.514 448.11L571.84 455.69L580.94 436.09L564.614 428.51ZM567.02 443.544C555.555 438.958 542.419 433.198 527.597 426.251L519.957 442.549C535.003 449.602 548.466 455.509 560.335 460.256L567.02 443.544ZM527.905 426.402C513.575 419.006 501.167 412.109 490.657 405.712L481.298 421.088C492.255 427.757 505.047 434.861 519.65 442.398L527.905 426.402ZM490.894 405.862C485.71 402.481 482.218 399.8 480.123 397.796C479.074 396.792 478.613 396.182 478.468 395.954C478.27 395.646 478.877 396.42 478.877 398H460.877C460.877 401.214 462.155 403.854 463.299 405.645C464.495 407.518 466.047 409.241 467.681 410.804C470.953 413.933 475.511 417.319 481.061 420.938L490.894 405.862ZM478.877 398C478.877 392.38 480.127 382.371 482.923 367.459L465.232 364.141C462.428 379.096 460.877 390.553 460.877 398H478.877ZM482.881 367.668C486.347 351.33 487.977 327.942 487.977 297.9H469.977C469.977 327.591 468.341 349.47 465.273 363.932L482.881 367.668ZM487.977 297.9V191.5H469.977V297.9H487.977ZM487.977 191.5C487.977 169.222 488.442 148.604 489.367 129.638L471.388 128.761C470.447 148.063 469.977 168.977 469.977 191.5H487.977ZM489.354 129.841C490.737 110.489 492.801 93.5748 495.523 79.0586L477.832 75.7414C474.953 91.0918 472.818 108.711 471.4 128.559L489.354 129.841ZM478.44 73.7753C467.996 97.5114 458.076 124.93 448.664 155.99L465.891 161.21C475.145 130.67 484.826 103.955 494.915 81.0246L478.44 73.7753ZM448.664 155.99C439.28 186.958 430.603 218.853 422.632 251.676L440.123 255.924C448.019 223.413 456.608 191.842 465.891 161.21L448.664 155.99ZM422.604 251.795C415.086 284.683 409.204 316.202 404.965 346.347L422.79 348.853C426.951 319.265 432.735 288.25 440.151 255.805L422.604 251.795ZM409.314 339.843L397.414 346.843L406.541 362.357L418.441 355.357L409.314 339.843ZM406.315 346.714L350.315 315.914L341.64 331.686L397.64 362.486L406.315 346.714ZM354.91 322.703C351.611 295.834 346.902 267.592 340.792 237.981L323.163 241.619C329.186 270.808 333.811 298.566 337.044 324.897L354.91 322.703ZM340.797 238.008C334.695 207.965 327.884 179.076 320.364 151.344L302.991 156.056C310.404 183.39 317.127 211.902 323.157 241.592L340.797 238.008ZM320.364 151.344C312.858 123.668 305.337 98.7481 297.797 76.5996L280.758 82.4004C288.151 104.119 295.563 128.666 302.991 156.056L320.364 151.344ZM280.319 78.6331C278.903 93.2712 277.727 109.982 276.789 128.751L294.766 129.649C295.694 111.085 296.852 94.6621 298.236 80.3669L280.319 78.6331ZM276.789 128.751C275.852 147.492 275.149 166.233 274.68 184.975L292.675 185.425C293.139 166.833 293.837 148.241 294.766 129.649L276.789 128.751ZM274.677 185.2C274.677 185.236 274.677 185.271 274.677 185.307C274.677 185.342 274.677 185.378 274.677 185.413C274.677 185.449 274.677 185.484 274.677 185.52C274.677 185.555 274.677 185.591 274.677 185.626C274.677 185.662 274.677 185.697 274.677 185.733C274.677 185.768 274.677 185.804 274.677 185.839C274.677 185.874 274.677 185.91 274.677 185.945C274.677 185.981 274.677 186.016 274.677 186.052C274.677 186.087 274.677 186.122 274.677 186.158C274.677 186.193 274.677 186.229 274.677 186.264C274.677 186.299 274.677 186.335 274.677 186.37C274.677 186.406 274.677 186.441 274.677 186.476C274.677 186.512 274.677 186.547 274.677 186.582C274.677 186.618 274.677 186.653 274.677 186.688C274.677 186.724 274.677 186.759 274.677 186.794C274.677 186.83 274.677 186.865 274.677 186.9C274.677 186.935 274.677 186.971 274.677 187.006C274.677 187.041 274.677 187.076 274.677 187.112C274.677 187.147 274.677 187.182 274.677 187.217C274.677 187.253 274.677 187.288 274.677 187.323C274.677 187.358 274.677 187.394 274.677 187.429C274.677 187.464 274.677 187.499 274.677 187.534C274.677 187.57 274.677 187.605 274.677 187.64C274.677 187.675 274.677 187.71 274.677 187.746C274.677 187.781 274.677 187.816 274.677 187.851C274.677 187.886 274.677 187.921 274.677 187.956C274.677 187.992 274.677 188.027 274.677 188.062C274.677 188.097 274.677 188.132 274.677 188.167C274.677 188.202 274.677 188.237 274.677 188.272C274.677 188.307 274.677 188.343 274.677 188.378C274.677 188.413 274.677 188.448 274.677 188.483C274.677 188.518 274.677 188.553 274.677 188.588C274.677 188.623 274.677 188.658 274.677 188.693C274.677 188.728 274.677 188.763 274.677 188.798C274.677 188.833 274.677 188.868 274.677 188.903C274.677 188.938 274.677 188.973 274.677 189.008C274.677 189.043 274.677 189.078 274.677 189.113C274.677 189.148 274.677 189.183 274.677 189.218C274.677 189.253 274.677 189.288 274.677 189.322C274.677 189.357 274.677 189.392 274.677 189.427C274.677 189.462 274.677 189.497 274.677 189.532C274.677 189.567 274.677 189.602 274.677 189.637C274.677 189.671 274.677 189.706 274.677 189.741C274.677 189.776 274.677 189.811 274.677 189.846C274.677 189.88 274.677 189.915 274.677 189.95C274.677 189.985 274.677 190.02 274.677 190.055C274.677 190.089 274.677 190.124 274.677 190.159C274.677 190.194 274.677 190.229 274.677 190.263C274.677 190.298 274.677 190.333 274.677 190.368C274.677 190.402 274.677 190.437 274.677 190.472C274.677 190.507 274.677 190.541 274.677 190.576C274.677 190.611 274.677 190.646 274.677 190.68C274.677 190.715 274.677 190.75 274.677 190.784C274.677 190.819 274.677 190.854 274.677 190.889C274.677 190.923 274.677 190.958 274.677 190.993C274.677 191.027 274.677 191.062 274.677 191.097C274.677 191.131 274.677 191.166 274.677 191.2C274.677 191.235 274.677 191.27 274.677 191.304C274.677 191.339 274.677 191.374 274.677 191.408C274.677 191.443 274.677 191.477 274.677 191.512C274.677 191.546 274.677 191.581 274.677 191.616C274.677 191.65 274.677 191.685 274.677 191.719C274.677 191.754 274.677 191.788 274.677 191.823C274.677 191.858 274.677 191.892 274.677 191.927C274.677 191.961 274.677 191.996 274.677 192.03C274.677 192.065 274.677 192.099 274.677 192.134C274.677 192.168 274.677 192.203 274.677 192.237C274.677 192.272 274.677 192.306 274.677 192.34C274.677 192.375 274.677 192.409 274.677 192.444C274.677 192.478 274.677 192.513 274.677 192.547C274.677 192.582 274.677 192.616 274.677 192.65C274.677 192.685 274.677 192.719 274.677 192.754C274.677 192.788 274.677 192.822 274.677 192.857C274.677 192.891 274.677 192.925 274.677 192.96C274.677 192.994 274.677 193.029 274.677 193.063C274.677 193.097 274.677 193.132 274.677 193.166C274.677 193.2 274.677 193.235 274.677 193.269C274.677 193.303 274.677 193.337 274.677 193.372C274.677 193.406 274.677 193.44 274.677 193.475C274.677 193.509 274.677 193.543 274.677 193.577C274.677 193.612 274.677 193.646 274.677 193.68C274.677 193.714 274.677 193.749 274.677 193.783C274.677 193.817 274.677 193.851 274.677 193.886C274.677 193.92 274.677 193.954 274.677 193.988C274.677 194.022 274.677 194.057 274.677 194.091C274.677 194.125 274.677 194.159 274.677 194.193C274.677 194.228 274.677 194.262 274.677 194.296C274.677 194.33 274.677 194.364 274.677 194.398C274.677 194.432 274.677 194.467 274.677 194.501C274.677 194.535 274.677 194.569 274.677 194.603C274.677 194.637 274.677 194.671 274.677 194.705C274.677 194.739 274.677 194.773 274.677 194.808C274.677 194.842 274.677 194.876 274.677 194.91C274.677 194.944 274.677 194.978 274.677 195.012C274.677 195.046 274.677 195.08 274.677 195.114C274.677 195.148 274.677 195.182 274.677 195.216C274.677 195.25 274.677 195.284 274.677 195.318C274.677 195.352 274.677 195.386 274.677 195.42C274.677 195.454 274.677 195.488 274.677 195.522C274.677 195.556 274.677 195.59 274.677 195.624C274.677 195.658 274.677 195.692 274.677 195.726C274.677 195.759 274.677 195.793 274.677 195.827C274.677 195.861 274.677 195.895 274.677 195.929C274.677 195.963 274.677 195.997 274.677 196.031C274.677 196.065 274.677 196.098 274.677 196.132C274.677 196.166 274.677 196.2 274.677 196.234C274.677 196.268 274.677 196.302 274.677 196.335C274.677 196.369 274.677 196.403 274.677 196.437C274.677 196.471 274.677 196.504 274.677 196.538C274.677 196.572 274.677 196.606 274.677 196.64C274.677 196.673 274.677 196.707 274.677 196.741C274.677 196.775 274.677 196.809 274.677 196.842C274.677 196.876 274.677 196.91 274.677 196.944C274.677 196.977 274.677 197.011 274.677 197.045C274.677 197.078 274.677 197.112 274.677 197.146C274.677 197.18 274.677 197.213 274.677 197.247C274.677 197.281 274.677 197.314 274.677 197.348C274.677 197.382 274.677 197.415 274.677 197.449C274.677 197.483 274.677 197.516 274.677 197.55C274.677 197.584 274.677 197.617 274.677 197.651C274.677 197.684 274.677 197.718 274.677 197.752C274.677 197.785 274.677 197.819 274.677 197.852C274.677 197.886 274.677 197.92 274.677 197.953C274.677 197.987 274.677 198.02 274.677 198.054C274.677 198.087 274.677 198.121 274.677 198.155C274.677 198.188 274.677 198.222 274.677 198.255C274.677 198.289 274.677 198.322 274.677 198.356C274.677 198.389 274.677 198.423 274.677 198.456C274.677 198.49 274.677 198.523 274.677 198.557C274.677 198.59 274.677 198.624 274.677 198.657C274.677 198.691 274.677 198.724 274.677 198.757C274.677 198.791 274.677 198.824 274.677 198.858C274.677 198.891 274.677 198.925 274.677 198.958C274.677 198.991 274.677 199.025 274.677 199.058C274.677 199.092 274.677 199.125 274.677 199.158C274.677 199.192 274.677 199.225 274.677 199.259C274.677 199.292 274.677 199.325 274.677 199.359C274.677 199.392 274.677 199.425 274.677 199.459C274.677 199.492 274.677 199.525 274.677 199.559C274.677 199.592 274.677 199.625 274.677 199.659C274.677 199.692 274.677 199.725 274.677 199.759C274.677 199.792 274.677 199.825 274.677 199.858C274.677 199.892 274.677 199.925 274.677 199.958C274.677 199.991 274.677 200.025 274.677 200.058C274.677 200.091 274.677 200.124 274.677 200.158C274.677 200.191 274.677 200.224 274.677 200.257C274.677 200.29 274.677 200.324 274.677 200.357C274.677 200.39 274.677 200.423 274.677 200.456C274.677 200.49 274.677 200.523 274.677 200.556C274.677 200.589 274.677 200.622 274.677 200.655C274.677 200.688 274.677 200.722 274.677 200.755C274.677 200.788 274.677 200.821 274.677 200.854C274.677 200.887 274.677 200.92 274.677 200.953C274.677 200.987 274.677 201.02 274.677 201.053C274.677 201.086 274.677 201.119 274.677 201.152C274.677 201.185 274.677 201.218 274.677 201.251C274.677 201.284 274.677 201.317 274.677 201.35C274.677 201.383 274.677 201.416 274.677 201.449C274.677 201.482 274.677 201.515 274.677 201.548C274.677 201.581 274.677 201.614 274.677 201.647C274.677 201.68 274.677 201.713 274.677 201.746C274.677 201.779 274.677 201.812 274.677 201.845C274.677 201.878 274.677 201.911 274.677 201.944C274.677 201.977 274.677 202.01 274.677 202.043C274.677 202.076 274.677 202.109 274.677 202.141C274.677 202.174 274.677 202.207 274.677 202.24C274.677 202.273 274.677 202.306 274.677 202.339C274.677 202.372 274.677 202.404 274.677 202.437C274.677 202.47 274.677 202.503 274.677 202.536C274.677 202.569 274.677 202.602 274.677 202.634C274.677 202.667 274.677 202.7 274.677 202.733C274.677 202.766 274.677 202.798 274.677 202.831C274.677 202.864 274.677 202.897 274.677 202.93C274.677 202.962 274.677 202.995 274.677 203.028C274.677 203.061 274.677 203.093 274.677 203.126C274.677 203.159 274.677 203.192 274.677 203.224C274.677 203.257 274.677 203.29 274.677 203.322C274.677 203.355 274.677 203.388 274.677 203.421C274.677 203.453 274.677 203.486 274.677 203.519C274.677 203.551 274.677 203.584 274.677 203.617C274.677 203.649 274.677 203.682 274.677 203.715C274.677 203.747 274.677 203.78 274.677 203.813C274.677 203.845 274.677 203.878 274.677 203.91C274.677 203.943 274.677 203.976 274.677 204.008C274.677 204.041 274.677 204.073 274.677 204.106C274.677 204.139 274.677 204.171 274.677 204.204C274.677 204.236 274.677 204.269 274.677 204.301C274.677 204.334 274.677 204.366 274.677 204.399C274.677 204.432 274.677 204.464 274.677 204.497C274.677 204.529 274.677 204.562 274.677 204.594C274.677 204.627 274.677 204.659 274.677 204.692C274.677 204.724 274.677 204.757 274.677 204.789C274.677 204.822 274.677 204.854 274.677 204.886C274.677 204.919 274.677 204.951 274.677 204.984C274.677 205.016 274.677 205.049 274.677 205.081C274.677 205.113 274.677 205.146 274.677 205.178C274.677 205.211 274.677 205.243 274.677 205.276C274.677 205.308 274.677 205.34 274.677 205.373C274.677 205.405 274.677 205.437 274.677 205.47C274.677 205.502 274.677 205.534 274.677 205.567C274.677 205.599 274.677 205.631 274.677 205.664C274.677 205.696 274.677 205.728 274.677 205.761C274.677 205.793 274.677 205.825 274.677 205.858C274.677 205.89 274.677 205.922 274.677 205.955C274.677 205.987 274.677 206.019 274.677 206.051C274.677 206.084 274.677 206.116 274.677 206.148C274.677 206.18 274.677 206.213 274.677 206.245C274.677 206.277 274.677 206.309 274.677 206.341C274.677 206.374 274.677 206.406 274.677 206.438C274.677 206.47 274.677 206.502 274.677 206.535C274.677 206.567 274.677 206.599 274.677 206.631C274.677 206.663 274.677 206.696 274.677 206.728C274.677 206.76 274.677 206.792 274.677 206.824C274.677 206.856 274.677 206.888 274.677 206.92C274.677 206.953 274.677 206.985 274.677 207.017C274.677 207.049 274.677 207.081 274.677 207.113C274.677 207.145 274.677 207.177 274.677 207.209C274.677 207.241 274.677 207.273 274.677 207.306C274.677 207.338 274.677 207.37 274.677 207.402C274.677 207.434 274.677 207.466 274.677 207.498C274.677 207.53 274.677 207.562 274.677 207.594C274.677 207.626 274.677 207.658 274.677 207.69C274.677 207.722 274.677 207.754 274.677 207.786C274.677 207.818 274.677 207.85 274.677 207.882C274.677 207.914 274.677 207.946 274.677 207.977C274.677 208.009 274.677 208.041 274.677 208.073C274.677 208.105 274.677 208.137 274.677 208.169C274.677 208.201 274.677 208.233 274.677 208.265C274.677 208.297 274.677 208.329 274.677 208.36C274.677 208.392 274.677 208.424 274.677 208.456C274.677 208.488 274.677 208.52 274.677 208.552C274.677 208.583 274.677 208.615 274.677 208.647C274.677 208.679 274.677 208.711 274.677 208.743C274.677 208.774 274.677 208.806 274.677 208.838C274.677 208.87 274.677 208.902 274.677 208.933C274.677 208.965 274.677 208.997 274.677 209.029C274.677 209.06 274.677 209.092 274.677 209.124C274.677 209.156 274.677 209.187 274.677 209.219C274.677 209.251 274.677 209.283 274.677 209.314C274.677 209.346 274.677 209.378 274.677 209.409C274.677 209.441 274.677 209.473 274.677 209.505C274.677 209.536 274.677 209.568 274.677 209.6C274.677 209.631 274.677 209.663 274.677 209.695C274.677 209.726 274.677 209.758 274.677 209.789C274.677 209.821 274.677 209.853 274.677 209.884C274.677 209.916 274.677 209.948 274.677 209.979C274.677 210.011 274.677 210.042 274.677 210.074C274.677 210.106 274.677 210.137 274.677 210.169C274.677 210.2 274.677 210.232 274.677 210.263C274.677 210.295 274.677 210.327 274.677 210.358C274.677 210.39 274.677 210.421 274.677 210.453C274.677 210.484 274.677 210.516 274.677 210.547C274.677 210.579 274.677 210.61 274.677 210.642C274.677 210.673 274.677 210.705 274.677 210.736C274.677 210.768 274.677 210.799 274.677 210.831C274.677 210.862 274.677 210.894 274.677 210.925C274.677 210.956 274.677 210.988 274.677 211.019C274.677 211.051 274.677 211.082 274.677 211.114C274.677 211.145 274.677 211.176 274.677 211.208C274.677 211.239 274.677 211.271 274.677 211.302C274.677 211.333 274.677 211.365 274.677 211.396C274.677 211.427 274.677 211.459 274.677 211.49C274.677 211.521 274.677 211.553 274.677 211.584C274.677 211.615 274.677 211.647 274.677 211.678C274.677 211.709 274.677 211.741 274.677 211.772C274.677 211.803 274.677 211.835 274.677 211.866C274.677 211.897 274.677 211.929 274.677 211.96C274.677 211.991 274.677 212.022 274.677 212.054C274.677 212.085 274.677 212.116 274.677 212.147C274.677 212.179 274.677 212.21 274.677 212.241C274.677 212.272 274.677 212.303 274.677 212.335C274.677 212.366 274.677 212.397 274.677 212.428C274.677 212.459 274.677 212.491 274.677 212.522C274.677 212.553 274.677 212.584 274.677 212.615C274.677 212.646 274.677 212.678 274.677 212.709C274.677 212.74 274.677 212.771 274.677 212.802C274.677 212.833 274.677 212.864 274.677 212.895C274.677 212.927 274.677 212.958 274.677 212.989C274.677 213.02 274.677 213.051 274.677 213.082C274.677 213.113 274.677 213.144 274.677 213.175C274.677 213.206 274.677 213.237 274.677 213.268C274.677 213.299 274.677 213.33 274.677 213.361C274.677 213.393 274.677 213.424 274.677 213.455C274.677 213.486 274.677 213.517 274.677 213.548C274.677 213.579 274.677 213.61 274.677 213.641C274.677 213.671 274.677 213.702 274.677 213.733C274.677 213.764 274.677 213.795 274.677 213.826C274.677 213.857 274.677 213.888 274.677 213.919C274.677 213.95 274.677 213.981 274.677 214.012C274.677 214.043 274.677 214.074 274.677 214.105C274.677 214.136 274.677 214.166 274.677 214.197C274.677 214.228 274.677 214.259 274.677 214.29C274.677 214.321 274.677 214.352 274.677 214.383C274.677 214.413 274.677 214.444 274.677 214.475C274.677 214.506 274.677 214.537 274.677 214.568C274.677 214.598 274.677 214.629 274.677 214.66C274.677 214.691 274.677 214.722 274.677 214.752C274.677 214.783 274.677 214.814 274.677 214.845C274.677 214.875 274.677 214.906 274.677 214.937C274.677 214.968 274.677 214.998 274.677 215.029C274.677 215.06 274.677 215.091 274.677 215.121C274.677 215.152 274.677 215.183 274.677 215.214C274.677 215.244 274.677 215.275 274.677 215.306C274.677 215.336 274.677 215.367 274.677 215.398C274.677 215.428 274.677 215.459 274.677 215.49C274.677 215.52 274.677 215.551 274.677 215.582C274.677 215.612 274.677 215.643 274.677 215.674C274.677 215.704 274.677 215.735 274.677 215.765C274.677 215.796 274.677 215.827 274.677 215.857C274.677 215.888 274.677 215.918 274.677 215.949C274.677 215.98 274.677 216.01 274.677 216.041C274.677 216.071 274.677 216.102 274.677 216.132C274.677 216.163 274.677 216.194 274.677 216.224C274.677 216.255 274.677 216.285 274.677 216.316C274.677 216.346 274.677 216.377 274.677 216.407C274.677 216.438 274.677 216.468 274.677 216.499C274.677 216.529 274.677 216.56 274.677 216.59C274.677 216.621 274.677 216.651 274.677 216.681C274.677 216.712 274.677 216.742 274.677 216.773C274.677 216.803 274.677 216.834 274.677 216.864C274.677 216.894 274.677 216.925 274.677 216.955C274.677 216.986 274.677 217.016 274.677 217.046C274.677 217.077 274.677 217.107 274.677 217.138C274.677 217.168 274.677 217.198 274.677 217.229C274.677 217.259 274.677 217.289 274.677 217.32C274.677 217.35 274.677 217.38 274.677 217.411C274.677 217.441 274.677 217.471 274.677 217.502C274.677 217.532 274.677 217.562 274.677 217.593C274.677 217.623 274.677 217.653 274.677 217.683C274.677 217.714 274.677 217.744 274.677 217.774C274.677 217.804 274.677 217.835 274.677 217.865C274.677 217.895 274.677 217.925 274.677 217.956C274.677 217.986 274.677 218.016 274.677 218.046C274.677 218.077 274.677 218.107 274.677 218.137C274.677 218.167 274.677 218.197 274.677 218.228C274.677 218.258 274.677 218.288 274.677 218.318C274.677 218.348 274.677 218.378 274.677 218.409C274.677 218.439 274.677 218.469 274.677 218.499C274.677 218.529 274.677 218.559 274.677 218.589C274.677 218.619 274.677 218.65 274.677 218.68C274.677 218.71 274.677 218.74 274.677 218.77C274.677 218.8 274.677 218.83 274.677 218.86C274.677 218.89 274.677 218.92 274.677 218.95C274.677 218.98 274.677 219.01 274.677 219.04C274.677 219.07 274.677 219.1 274.677 219.131C274.677 219.161 274.677 219.191 274.677 219.221C274.677 219.251 274.677 219.281 274.677 219.311C274.677 219.341 274.677 219.371 274.677 219.4C274.677 219.43 274.677 219.46 274.677 219.49C274.677 219.52 274.677 219.55 274.677 219.58C274.677 219.61 274.677 219.64 274.677 219.67C274.677 219.7 274.677 219.73 274.677 219.76C274.677 219.79 274.677 219.82 274.677 219.849C274.677 219.879 274.677 219.909 274.677 219.939C274.677 219.969 274.677 219.999 274.677 220.029C274.677 220.059 274.677 220.088 274.677 220.118C274.677 220.148 274.677 220.178 274.677 220.208C274.677 220.238 274.677 220.267 274.677 220.297C274.677 220.327 274.677 220.357 274.677 220.387C274.677 220.416 274.677 220.446 274.677 220.476C274.677 220.506 274.677 220.536 274.677 220.565C274.677 220.595 274.677 220.625 274.677 220.655C274.677 220.684 274.677 220.714 274.677 220.744C274.677 220.774 274.677 220.803 274.677 220.833C274.677 220.863 274.677 220.892 274.677 220.922C274.677 220.952 274.677 220.981 274.677 221.011C274.677 221.041 274.677 221.07 274.677 221.1C274.677 221.13 274.677 221.159 274.677 221.189C274.677 221.219 274.677 221.248 274.677 221.278C274.677 221.308 274.677 221.337 274.677 221.367C274.677 221.397 274.677 221.426 274.677 221.456C274.677 221.485 274.677 221.515 274.677 221.545C274.677 221.574 274.677 221.604 274.677 221.633C274.677 221.663 274.677 221.692 274.677 221.722C274.677 221.752 274.677 221.781 274.677 221.811C274.677 221.84 274.677 221.87 274.677 221.899C274.677 221.929 274.677 221.958 274.677 221.988C274.677 222.017 274.677 222.047 274.677 222.076C274.677 222.106 274.677 222.135 274.677 222.165C274.677 222.194 274.677 222.224 274.677 222.253C274.677 222.283 274.677 222.312 274.677 222.341C274.677 222.371 274.677 222.4 274.677 222.43C274.677 222.459 274.677 222.489 274.677 222.518C274.677 222.547 274.677 222.577 274.677 222.606C274.677 222.636 274.677 222.665 274.677 222.694C274.677 222.724 274.677 222.753 274.677 222.783C274.677 222.812 274.677 222.841 274.677 222.871C274.677 222.9 274.677 222.929 274.677 222.959C274.677 222.988 274.677 223.017 274.677 223.047C274.677 223.076 274.677 223.105 274.677 223.134C274.677 223.164 274.677 223.193 274.677 223.222C274.677 223.252 274.677 223.281 274.677 223.31C274.677 223.339 274.677 223.369 274.677 223.398C274.677 223.427 274.677 223.456 274.677 223.486C274.677 223.515 274.677 223.544 274.677 223.573C274.677 223.603 274.677 223.632 274.677 223.661C274.677 223.69 274.677 223.719 274.677 223.749C274.677 223.778 274.677 223.807 274.677 223.836C274.677 223.865 274.677 223.894 274.677 223.924C274.677 223.953 274.677 223.982 274.677 224.011C274.677 224.04 274.677 224.069 274.677 224.098C274.677 224.128 274.677 224.157 274.677 224.186C274.677 224.215 274.677 224.244 274.677 224.273C274.677 224.302 274.677 224.331 274.677 224.36C274.677 224.389 274.677 224.418 274.677 224.447C274.677 224.477 274.677 224.506 274.677 224.535C274.677 224.564 274.677 224.593 274.677 224.622C274.677 224.651 274.677 224.68 274.677 224.709C274.677 224.738 274.677 224.767 274.677 224.796C274.677 224.825 274.677 224.854 274.677 224.883C274.677 224.912 274.677 224.941 274.677 224.97C274.677 224.999 274.677 225.028 274.677 225.057C274.677 225.085 274.677 225.114 274.677 225.143C274.677 225.172 274.677 225.201 274.677 225.23C274.677 225.259 274.677 225.288 274.677 225.317C274.677 225.346 274.677 225.375 274.677 225.403C274.677 225.432 274.677 225.461 274.677 225.49C274.677 225.519 274.677 225.548 274.677 225.577C274.677 225.606 274.677 225.634 274.677 225.663C274.677 225.692 274.677 225.721 274.677 225.75C274.677 225.779 274.677 225.807 274.677 225.836C274.677 225.865 274.677 225.894 274.677 225.923C274.677 225.951 274.677 225.98 274.677 226.009C274.677 226.038 274.677 226.066 274.677 226.095C274.677 226.124 274.677 226.153 274.677 226.181C274.677 226.21 274.677 226.239 274.677 226.268C274.677 226.296 274.677 226.325 274.677 226.354C274.677 226.382 274.677 226.411 274.677 226.44C274.677 226.468 274.677 226.497 274.677 226.526C274.677 226.555 274.677 226.583 274.677 226.612C274.677 226.64 274.677 226.669 274.677 226.698C274.677 226.726 274.677 226.755 274.677 226.784C274.677 226.812 274.677 226.841 274.677 226.87C274.677 226.898 274.677 226.927 274.677 226.955C274.677 226.984 274.677 227.013 274.677 227.041C274.677 227.07 274.677 227.098 274.677 227.127C274.677 227.155 274.677 227.184 274.677 227.212C274.677 227.241 274.677 227.27 274.677 227.298C274.677 227.327 274.677 227.355 274.677 227.384C274.677 227.412 274.677 227.441 274.677 227.469C274.677 227.498 274.677 227.526 274.677 227.555C274.677 227.583 274.677 227.612 274.677 227.64C274.677 227.668 274.677 227.697 274.677 227.725C274.677 227.754 274.677 227.782 274.677 227.811C274.677 227.839 274.677 227.868 274.677 227.896C274.677 227.924 274.677 227.953 274.677 227.981C274.677 228.01 274.677 228.038 274.677 228.066C274.677 228.095 274.677 228.123 274.677 228.152C274.677 228.18 274.677 228.208 274.677 228.237C274.677 228.265 274.677 228.293 274.677 228.322C274.677 228.35 274.677 228.378 274.677 228.407C274.677 228.435 274.677 228.463 274.677 228.492C274.677 228.52 274.677 228.548 274.677 228.576C274.677 228.605 274.677 228.633 274.677 228.661C274.677 228.69 274.677 228.718 274.677 228.746C274.677 228.774 274.677 228.803 274.677 228.831C274.677 228.859 274.677 228.887 274.677 228.916C274.677 228.944 274.677 228.972 274.677 229C274.677 229.028 274.677 229.057 274.677 229.085C274.677 229.113 274.677 229.141 274.677 229.169C274.677 229.198 274.677 229.226 274.677 229.254C274.677 229.282 274.677 229.31 274.677 229.338C274.677 229.366 274.677 229.395 274.677 229.423C274.677 229.451 274.677 229.479 274.677 229.507C274.677 229.535 274.677 229.563 274.677 229.591C274.677 229.62 274.677 229.648 274.677 229.676C274.677 229.704 274.677 229.732 274.677 229.76C274.677 229.788 274.677 229.816 274.677 229.844C274.677 229.872 274.677 229.9 274.677 229.928C274.677 229.956 274.677 229.984 274.677 230.012C274.677 230.04 274.677 230.068 274.677 230.096C274.677 230.124 274.677 230.152 274.677 230.18C274.677 230.208 274.677 230.236 274.677 230.264C274.677 230.292 274.677 230.32 274.677 230.348C274.677 230.376 274.677 230.404 274.677 230.432C274.677 230.46 274.677 230.488 274.677 230.516C274.677 230.544 274.677 230.572 274.677 230.599C274.677 230.627 274.677 230.655 274.677 230.683C274.677 230.711 274.677 230.739 274.677 230.767C274.677 230.795 274.677 230.823 274.677 230.85C274.677 230.878 274.677 230.906 274.677 230.934C274.677 230.962 274.677 230.99 274.677 231.017C274.677 231.045 274.677 231.073 274.677 231.101C274.677 231.129 274.677 231.156 274.677 231.184C274.677 231.212 274.677 231.24 274.677 231.268C274.677 231.295 274.677 231.323 274.677 231.351C274.677 231.379 274.677 231.406 274.677 231.434C274.677 231.462 274.677 231.49 274.677 231.517C274.677 231.545 274.677 231.573 274.677 231.601C274.677 231.628 274.677 231.656 274.677 231.684C274.677 231.711 274.677 231.739 274.677 231.767C274.677 231.794 274.677 231.822 274.677 231.85C274.677 231.877 274.677 231.905 274.677 231.933C274.677 231.96 274.677 231.988 274.677 232.016C274.677 232.043 274.677 232.071 274.677 232.099C274.677 232.126 274.677 232.154 274.677 232.181C274.677 232.209 274.677 232.237 274.677 232.264C274.677 232.292 274.677 232.319 274.677 232.347C274.677 232.374 274.677 232.402 274.677 232.43C274.677 232.457 274.677 232.485 274.677 232.512C274.677 232.54 274.677 232.567 274.677 232.595C274.677 232.622 274.677 232.65 274.677 232.677C274.677 232.705 274.677 232.732 274.677 232.76C274.677 232.787 274.677 232.815 274.677 232.842C274.677 232.87 274.677 232.897 274.677 232.925C274.677 232.952 274.677 232.979 274.677 233.007C274.677 233.034 274.677 233.062 274.677 233.089C274.677 233.117 274.677 233.144 274.677 233.171C274.677 233.199 274.677 233.226 274.677 233.254C274.677 233.281 274.677 233.308 274.677 233.336C274.677 233.363 274.677 233.391 274.677 233.418C274.677 233.445 274.677 233.473 274.677 233.5H292.677C292.677 233.473 292.677 233.445 292.677 233.418C292.677 233.391 292.677 233.363 292.677 233.336C292.677 233.308 292.677 233.281 292.677 233.254C292.677 233.226 292.677 233.199 292.677 233.171C292.677 233.144 292.677 233.117 292.677 233.089C292.677 233.062 292.677 233.034 292.677 233.007C292.677 232.979 292.677 232.952 292.677 232.925C292.677 232.897 292.677 232.87 292.677 232.842C292.677 232.815 292.677 232.787 292.677 232.76C292.677 232.732 292.677 232.705 292.677 232.677C292.677 232.65 292.677 232.622 292.677 232.595C292.677 232.567 292.677 232.54 292.677 232.512C292.677 232.485 292.677 232.457 292.677 232.43C292.677 232.402 292.677 232.374 292.677 232.347C292.677 232.319 292.677 232.292 292.677 232.264C292.677 232.237 292.677 232.209 292.677 232.181C292.677 232.154 292.677 232.126 292.677 232.099C292.677 232.071 292.677 232.043 292.677 232.016C292.677 231.988 292.677 231.96 292.677 231.933C292.677 231.905 292.677 231.877 292.677 231.85C292.677 231.822 292.677 231.794 292.677 231.767C292.677 231.739 292.677 231.711 292.677 231.684C292.677 231.656 292.677 231.628 292.677 231.601C292.677 231.573 292.677 231.545 292.677 231.517C292.677 231.49 292.677 231.462 292.677 231.434C292.677 231.406 292.677 231.379 292.677 231.351C292.677 231.323 292.677 231.295 292.677 231.268C292.677 231.24 292.677 231.212 292.677 231.184C292.677 231.156 292.677 231.129 292.677 231.101C292.677 231.073 292.677 231.045 292.677 231.017C292.677 230.99 292.677 230.962 292.677 230.934C292.677 230.906 292.677 230.878 292.677 230.85C292.677 230.823 292.677 230.795 292.677 230.767C292.677 230.739 292.677 230.711 292.677 230.683C292.677 230.655 292.677 230.627 292.677 230.599C292.677 230.572 292.677 230.544 292.677 230.516C292.677 230.488 292.677 230.46 292.677 230.432C292.677 230.404 292.677 230.376 292.677 230.348C292.677 230.32 292.677 230.292 292.677 230.264C292.677 230.236 292.677 230.208 292.677 230.18C292.677 230.152 292.677 230.124 292.677 230.096C292.677 230.068 292.677 230.04 292.677 230.012C292.677 229.984 292.677 229.956 292.677 229.928C292.677 229.9 292.677 229.872 292.677 229.844C292.677 229.816 292.677 229.788 292.677 229.76C292.677 229.732 292.677 229.704 292.677 229.676C292.677 229.648 292.677 229.62 292.677 229.591C292.677 229.563 292.677 229.535 292.677 229.507C292.677 229.479 292.677 229.451 292.677 229.423C292.677 229.395 292.677 229.366 292.677 229.338C292.677 229.31 292.677 229.282 292.677 229.254C292.677 229.226 292.677 229.198 292.677 229.169C292.677 229.141 292.677 229.113 292.677 229.085C292.677 229.057 292.677 229.028 292.677 229C292.677 228.972 292.677 228.944 292.677 228.916C292.677 228.887 292.677 228.859 292.677 228.831C292.677 228.803 292.677 228.774 292.677 228.746C292.677 228.718 292.677 228.69 292.677 228.661C292.677 228.633 292.677 228.605 292.677 228.576C292.677 228.548 292.677 228.52 292.677 228.492C292.677 228.463 292.677 228.435 292.677 228.407C292.677 228.378 292.677 228.35 292.677 228.322C292.677 228.293 292.677 228.265 292.677 228.237C292.677 228.208 292.677 228.18 292.677 228.152C292.677 228.123 292.677 228.095 292.677 228.066C292.677 228.038 292.677 228.01 292.677 227.981C292.677 227.953 292.677 227.924 292.677 227.896C292.677 227.868 292.677 227.839 292.677 227.811C292.677 227.782 292.677 227.754 292.677 227.725C292.677 227.697 292.677 227.668 292.677 227.64C292.677 227.612 292.677 227.583 292.677 227.555C292.677 227.526 292.677 227.498 292.677 227.469C292.677 227.441 292.677 227.412 292.677 227.384C292.677 227.355 292.677 227.327 292.677 227.298C292.677 227.27 292.677 227.241 292.677 227.212C292.677 227.184 292.677 227.155 292.677 227.127C292.677 227.098 292.677 227.07 292.677 227.041C292.677 227.013 292.677 226.984 292.677 226.955C292.677 226.927 292.677 226.898 292.677 226.87C292.677 226.841 292.677 226.812 292.677 226.784C292.677 226.755 292.677 226.726 292.677 226.698C292.677 226.669 292.677 226.64 292.677 226.612C292.677 226.583 292.677 226.555 292.677 226.526C292.677 226.497 292.677 226.468 292.677 226.44C292.677 226.411 292.677 226.382 292.677 226.354C292.677 226.325 292.677 226.296 292.677 226.268C292.677 226.239 292.677 226.21 292.677 226.181C292.677 226.153 292.677 226.124 292.677 226.095C292.677 226.066 292.677 226.038 292.677 226.009C292.677 225.98 292.677 225.951 292.677 225.923C292.677 225.894 292.677 225.865 292.677 225.836C292.677 225.807 292.677 225.779 292.677 225.75C292.677 225.721 292.677 225.692 292.677 225.663C292.677 225.634 292.677 225.606 292.677 225.577C292.677 225.548 292.677 225.519 292.677 225.49C292.677 225.461 292.677 225.432 292.677 225.403C292.677 225.375 292.677 225.346 292.677 225.317C292.677 225.288 292.677 225.259 292.677 225.23C292.677 225.201 292.677 225.172 292.677 225.143C292.677 225.114 292.677 225.085 292.677 225.057C292.677 225.028 292.677 224.999 292.677 224.97C292.677 224.941 292.677 224.912 292.677 224.883C292.677 224.854 292.677 224.825 292.677 224.796C292.677 224.767 292.677 224.738 292.677 224.709C292.677 224.68 292.677 224.651 292.677 224.622C292.677 224.593 292.677 224.564 292.677 224.535C292.677 224.506 292.677 224.477 292.677 224.447C292.677 224.418 292.677 224.389 292.677 224.36C292.677 224.331 292.677 224.302 292.677 224.273C292.677 224.244 292.677 224.215 292.677 224.186C292.677 224.157 292.677 224.128 292.677 224.098C292.677 224.069 292.677 224.04 292.677 224.011C292.677 223.982 292.677 223.953 292.677 223.924C292.677 223.894 292.677 223.865 292.677 223.836C292.677 223.807 292.677 223.778 292.677 223.749C292.677 223.719 292.677 223.69 292.677 223.661C292.677 223.632 292.677 223.603 292.677 223.573C292.677 223.544 292.677 223.515 292.677 223.486C292.677 223.456 292.677 223.427 292.677 223.398C292.677 223.369 292.677 223.339 292.677 223.31C292.677 223.281 292.677 223.252 292.677 223.222C292.677 223.193 292.677 223.164 292.677 223.134C292.677 223.105 292.677 223.076 292.677 223.047C292.677 223.017 292.677 222.988 292.677 222.959C292.677 222.929 292.677 222.9 292.677 222.871C292.677 222.841 292.677 222.812 292.677 222.783C292.677 222.753 292.677 222.724 292.677 222.694C292.677 222.665 292.677 222.636 292.677 222.606C292.677 222.577 292.677 222.547 292.677 222.518C292.677 222.489 292.677 222.459 292.677 222.43C292.677 222.4 292.677 222.371 292.677 222.341C292.677 222.312 292.677 222.283 292.677 222.253C292.677 222.224 292.677 222.194 292.677 222.165C292.677 222.135 292.677 222.106 292.677 222.076C292.677 222.047 292.677 222.017 292.677 221.988C292.677 221.958 292.677 221.929 292.677 221.899C292.677 221.87 292.677 221.84 292.677 221.811C292.677 221.781 292.677 221.752 292.677 221.722C292.677 221.692 292.677 221.663 292.677 221.633C292.677 221.604 292.677 221.574 292.677 221.545C292.677 221.515 292.677 221.485 292.677 221.456C292.677 221.426 292.677 221.397 292.677 221.367C292.677 221.337 292.677 221.308 292.677 221.278C292.677 221.248 292.677 221.219 292.677 221.189C292.677 221.159 292.677 221.13 292.677 221.1C292.677 221.07 292.677 221.041 292.677 221.011C292.677 220.981 292.677 220.952 292.677 220.922C292.677 220.892 292.677 220.863 292.677 220.833C292.677 220.803 292.677 220.774 292.677 220.744C292.677 220.714 292.677 220.684 292.677 220.655C292.677 220.625 292.677 220.595 292.677 220.565C292.677 220.536 292.677 220.506 292.677 220.476C292.677 220.446 292.677 220.416 292.677 220.387C292.677 220.357 292.677 220.327 292.677 220.297C292.677 220.267 292.677 220.238 292.677 220.208C292.677 220.178 292.677 220.148 292.677 220.118C292.677 220.088 292.677 220.059 292.677 220.029C292.677 219.999 292.677 219.969 292.677 219.939C292.677 219.909 292.677 219.879 292.677 219.849C292.677 219.82 292.677 219.79 292.677 219.76C292.677 219.73 292.677 219.7 292.677 219.67C292.677 219.64 292.677 219.61 292.677 219.58C292.677 219.55 292.677 219.52 292.677 219.49C292.677 219.46 292.677 219.43 292.677 219.4C292.677 219.371 292.677 219.341 292.677 219.311C292.677 219.281 292.677 219.251 292.677 219.221C292.677 219.191 292.677 219.161 292.677 219.131C292.677 219.1 292.677 219.07 292.677 219.04C292.677 219.01 292.677 218.98 292.677 218.95C292.677 218.92 292.677 218.89 292.677 218.86C292.677 218.83 292.677 218.8 292.677 218.77C292.677 218.74 292.677 218.71 292.677 218.68C292.677 218.65 292.677 218.619 292.677 218.589C292.677 218.559 292.677 218.529 292.677 218.499C292.677 218.469 292.677 218.439 292.677 218.409C292.677 218.378 292.677 218.348 292.677 218.318C292.677 218.288 292.677 218.258 292.677 218.228C292.677 218.197 292.677 218.167 292.677 218.137C292.677 218.107 292.677 218.077 292.677 218.046C292.677 218.016 292.677 217.986 292.677 217.956C292.677 217.925 292.677 217.895 292.677 217.865C292.677 217.835 292.677 217.804 292.677 217.774C292.677 217.744 292.677 217.714 292.677 217.683C292.677 217.653 292.677 217.623 292.677 217.593C292.677 217.562 292.677 217.532 292.677 217.502C292.677 217.471 292.677 217.441 292.677 217.411C292.677 217.38 292.677 217.35 292.677 217.32C292.677 217.289 292.677 217.259 292.677 217.229C292.677 217.198 292.677 217.168 292.677 217.138C292.677 217.107 292.677 217.077 292.677 217.046C292.677 217.016 292.677 216.986 292.677 216.955C292.677 216.925 292.677 216.894 292.677 216.864C292.677 216.834 292.677 216.803 292.677 216.773C292.677 216.742 292.677 216.712 292.677 216.681C292.677 216.651 292.677 216.621 292.677 216.59C292.677 216.56 292.677 216.529 292.677 216.499C292.677 216.468 292.677 216.438 292.677 216.407C292.677 216.377 292.677 216.346 292.677 216.316C292.677 216.285 292.677 216.255 292.677 216.224C292.677 216.194 292.677 216.163 292.677 216.132C292.677 216.102 292.677 216.071 292.677 216.041C292.677 216.01 292.677 215.98 292.677 215.949C292.677 215.918 292.677 215.888 292.677 215.857C292.677 215.827 292.677 215.796 292.677 215.765C292.677 215.735 292.677 215.704 292.677 215.674C292.677 215.643 292.677 215.612 292.677 215.582C292.677 215.551 292.677 215.52 292.677 215.49C292.677 215.459 292.677 215.428 292.677 215.398C292.677 215.367 292.677 215.336 292.677 215.306C292.677 215.275 292.677 215.244 292.677 215.214C292.677 215.183 292.677 215.152 292.677 215.121C292.677 215.091 292.677 215.06 292.677 215.029C292.677 214.998 292.677 214.968 292.677 214.937C292.677 214.906 292.677 214.875 292.677 214.845C292.677 214.814 292.677 214.783 292.677 214.752C292.677 214.722 292.677 214.691 292.677 214.66C292.677 214.629 292.677 214.598 292.677 214.568C292.677 214.537 292.677 214.506 292.677 214.475C292.677 214.444 292.677 214.413 292.677 214.383C292.677 214.352 292.677 214.321 292.677 214.29C292.677 214.259 292.677 214.228 292.677 214.197C292.677 214.166 292.677 214.136 292.677 214.105C292.677 214.074 292.677 214.043 292.677 214.012C292.677 213.981 292.677 213.95 292.677 213.919C292.677 213.888 292.677 213.857 292.677 213.826C292.677 213.795 292.677 213.764 292.677 213.733C292.677 213.702 292.677 213.671 292.677 213.641C292.677 213.61 292.677 213.579 292.677 213.548C292.677 213.517 292.677 213.486 292.677 213.455C292.677 213.424 292.677 213.393 292.677 213.361C292.677 213.33 292.677 213.299 292.677 213.268C292.677 213.237 292.677 213.206 292.677 213.175C292.677 213.144 292.677 213.113 292.677 213.082C292.677 213.051 292.677 213.02 292.677 212.989C292.677 212.958 292.677 212.927 292.677 212.895C292.677 212.864 292.677 212.833 292.677 212.802C292.677 212.771 292.677 212.74 292.677 212.709C292.677 212.678 292.677 212.646 292.677 212.615C292.677 212.584 292.677 212.553 292.677 212.522C292.677 212.491 292.677 212.459 292.677 212.428C292.677 212.397 292.677 212.366 292.677 212.335C292.677 212.303 292.677 212.272 292.677 212.241C292.677 212.21 292.677 212.179 292.677 212.147C292.677 212.116 292.677 212.085 292.677 212.054C292.677 212.022 292.677 211.991 292.677 211.96C292.677 211.929 292.677 211.897 292.677 211.866C292.677 211.835 292.677 211.803 292.677 211.772C292.677 211.741 292.677 211.709 292.677 211.678C292.677 211.647 292.677 211.615 292.677 211.584C292.677 211.553 292.677 211.521 292.677 211.49C292.677 211.459 292.677 211.427 292.677 211.396C292.677 211.365 292.677 211.333 292.677 211.302C292.677 211.271 292.677 211.239 292.677 211.208C292.677 211.176 292.677 211.145 292.677 211.114C292.677 211.082 292.677 211.051 292.677 211.019C292.677 210.988 292.677 210.956 292.677 210.925C292.677 210.894 292.677 210.862 292.677 210.831C292.677 210.799 292.677 210.768 292.677 210.736C292.677 210.705 292.677 210.673 292.677 210.642C292.677 210.61 292.677 210.579 292.677 210.547C292.677 210.516 292.677 210.484 292.677 210.453C292.677 210.421 292.677 210.39 292.677 210.358C292.677 210.327 292.677 210.295 292.677 210.263C292.677 210.232 292.677 210.2 292.677 210.169C292.677 210.137 292.677 210.106 292.677 210.074C292.677 210.042 292.677 210.011 292.677 209.979C292.677 209.948 292.677 209.916 292.677 209.884C292.677 209.853 292.677 209.821 292.677 209.789C292.677 209.758 292.677 209.726 292.677 209.695C292.677 209.663 292.677 209.631 292.677 209.6C292.677 209.568 292.677 209.536 292.677 209.505C292.677 209.473 292.677 209.441 292.677 209.409C292.677 209.378 292.677 209.346 292.677 209.314C292.677 209.283 292.677 209.251 292.677 209.219C292.677 209.187 292.677 209.156 292.677 209.124C292.677 209.092 292.677 209.06 292.677 209.029C292.677 208.997 292.677 208.965 292.677 208.933C292.677 208.902 292.677 208.87 292.677 208.838C292.677 208.806 292.677 208.774 292.677 208.743C292.677 208.711 292.677 208.679 292.677 208.647C292.677 208.615 292.677 208.583 292.677 208.552C292.677 208.52 292.677 208.488 292.677 208.456C292.677 208.424 292.677 208.392 292.677 208.36C292.677 208.329 292.677 208.297 292.677 208.265C292.677 208.233 292.677 208.201 292.677 208.169C292.677 208.137 292.677 208.105 292.677 208.073C292.677 208.041 292.677 208.009 292.677 207.977C292.677 207.946 292.677 207.914 292.677 207.882C292.677 207.85 292.677 207.818 292.677 207.786C292.677 207.754 292.677 207.722 292.677 207.69C292.677 207.658 292.677 207.626 292.677 207.594C292.677 207.562 292.677 207.53 292.677 207.498C292.677 207.466 292.677 207.434 292.677 207.402C292.677 207.37 292.677 207.338 292.677 207.306C292.677 207.273 292.677 207.241 292.677 207.209C292.677 207.177 292.677 207.145 292.677 207.113C292.677 207.081 292.677 207.049 292.677 207.017C292.677 206.985 292.677 206.953 292.677 206.92C292.677 206.888 292.677 206.856 292.677 206.824C292.677 206.792 292.677 206.76 292.677 206.728C292.677 206.696 292.677 206.663 292.677 206.631C292.677 206.599 292.677 206.567 292.677 206.535C292.677 206.502 292.677 206.47 292.677 206.438C292.677 206.406 292.677 206.374 292.677 206.341C292.677 206.309 292.677 206.277 292.677 206.245C292.677 206.213 292.677 206.18 292.677 206.148C292.677 206.116 292.677 206.084 292.677 206.051C292.677 206.019 292.677 205.987 292.677 205.955C292.677 205.922 292.677 205.89 292.677 205.858C292.677 205.825 292.677 205.793 292.677 205.761C292.677 205.728 292.677 205.696 292.677 205.664C292.677 205.631 292.677 205.599 292.677 205.567C292.677 205.534 292.677 205.502 292.677 205.47C292.677 205.437 292.677 205.405 292.677 205.373C292.677 205.34 292.677 205.308 292.677 205.276C292.677 205.243 292.677 205.211 292.677 205.178C292.677 205.146 292.677 205.113 292.677 205.081C292.677 205.049 292.677 205.016 292.677 204.984C292.677 204.951 292.677 204.919 292.677 204.886C292.677 204.854 292.677 204.822 292.677 204.789C292.677 204.757 292.677 204.724 292.677 204.692C292.677 204.659 292.677 204.627 292.677 204.594C292.677 204.562 292.677 204.529 292.677 204.497C292.677 204.464 292.677 204.432 292.677 204.399C292.677 204.366 292.677 204.334 292.677 204.301C292.677 204.269 292.677 204.236 292.677 204.204C292.677 204.171 292.677 204.139 292.677 204.106C292.677 204.073 292.677 204.041 292.677 204.008C292.677 203.976 292.677 203.943 292.677 203.91C292.677 203.878 292.677 203.845 292.677 203.813C292.677 203.78 292.677 203.747 292.677 203.715C292.677 203.682 292.677 203.649 292.677 203.617C292.677 203.584 292.677 203.551 292.677 203.519C292.677 203.486 292.677 203.453 292.677 203.421C292.677 203.388 292.677 203.355 292.677 203.322C292.677 203.29 292.677 203.257 292.677 203.224C292.677 203.192 292.677 203.159 292.677 203.126C292.677 203.093 292.677 203.061 292.677 203.028C292.677 202.995 292.677 202.962 292.677 202.93C292.677 202.897 292.677 202.864 292.677 202.831C292.677 202.798 292.677 202.766 292.677 202.733C292.677 202.7 292.677 202.667 292.677 202.634C292.677 202.602 292.677 202.569 292.677 202.536C292.677 202.503 292.677 202.47 292.677 202.437C292.677 202.404 292.677 202.372 292.677 202.339C292.677 202.306 292.677 202.273 292.677 202.24C292.677 202.207 292.677 202.174 292.677 202.141C292.677 202.109 292.677 202.076 292.677 202.043C292.677 202.01 292.677 201.977 292.677 201.944C292.677 201.911 292.677 201.878 292.677 201.845C292.677 201.812 292.677 201.779 292.677 201.746C292.677 201.713 292.677 201.68 292.677 201.647C292.677 201.614 292.677 201.581 292.677 201.548C292.677 201.515 292.677 201.482 292.677 201.449C292.677 201.416 292.677 201.383 292.677 201.35C292.677 201.317 292.677 201.284 292.677 201.251C292.677 201.218 292.677 201.185 292.677 201.152C292.677 201.119 292.677 201.086 292.677 201.053C292.677 201.02 292.677 200.987 292.677 200.953C292.677 200.92 292.677 200.887 292.677 200.854C292.677 200.821 292.677 200.788 292.677 200.755C292.677 200.722 292.677 200.688 292.677 200.655C292.677 200.622 292.677 200.589 292.677 200.556C292.677 200.523 292.677 200.49 292.677 200.456C292.677 200.423 292.677 200.39 292.677 200.357C292.677 200.324 292.677 200.29 292.677 200.257C292.677 200.224 292.677 200.191 292.677 200.158C292.677 200.124 292.677 200.091 292.677 200.058C292.677 200.025 292.677 199.991 292.677 199.958C292.677 199.925 292.677 199.892 292.677 199.858C292.677 199.825 292.677 199.792 292.677 199.759C292.677 199.725 292.677 199.692 292.677 199.659C292.677 199.625 292.677 199.592 292.677 199.559C292.677 199.525 292.677 199.492 292.677 199.459C292.677 199.425 292.677 199.392 292.677 199.359C292.677 199.325 292.677 199.292 292.677 199.259C292.677 199.225 292.677 199.192 292.677 199.158C292.677 199.125 292.677 199.092 292.677 199.058C292.677 199.025 292.677 198.991 292.677 198.958C292.677 198.925 292.677 198.891 292.677 198.858C292.677 198.824 292.677 198.791 292.677 198.757C292.677 198.724 292.677 198.691 292.677 198.657C292.677 198.624 292.677 198.59 292.677 198.557C292.677 198.523 292.677 198.49 292.677 198.456C292.677 198.423 292.677 198.389 292.677 198.356C292.677 198.322 292.677 198.289 292.677 198.255C292.677 198.222 292.677 198.188 292.677 198.155C292.677 198.121 292.677 198.087 292.677 198.054C292.677 198.02 292.677 197.987 292.677 197.953C292.677 197.92 292.677 197.886 292.677 197.852C292.677 197.819 292.677 197.785 292.677 197.752C292.677 197.718 292.677 197.684 292.677 197.651C292.677 197.617 292.677 197.584 292.677 197.55C292.677 197.516 292.677 197.483 292.677 197.449C292.677 197.415 292.677 197.382 292.677 197.348C292.677 197.314 292.677 197.281 292.677 197.247C292.677 197.213 292.677 197.18 292.677 197.146C292.677 197.112 292.677 197.078 292.677 197.045C292.677 197.011 292.677 196.977 292.677 196.944C292.677 196.91 292.677 196.876 292.677 196.842C292.677 196.809 292.677 196.775 292.677 196.741C292.677 196.707 292.677 196.673 292.677 196.64C292.677 196.606 292.677 196.572 292.677 196.538C292.677 196.504 292.677 196.471 292.677 196.437C292.677 196.403 292.677 196.369 292.677 196.335C292.677 196.302 292.677 196.268 292.677 196.234C292.677 196.2 292.677 196.166 292.677 196.132C292.677 196.098 292.677 196.065 292.677 196.031C292.677 195.997 292.677 195.963 292.677 195.929C292.677 195.895 292.677 195.861 292.677 195.827C292.677 195.793 292.677 195.759 292.677 195.726C292.677 195.692 292.677 195.658 292.677 195.624C292.677 195.59 292.677 195.556 292.677 195.522C292.677 195.488 292.677 195.454 292.677 195.42C292.677 195.386 292.677 195.352 292.677 195.318C292.677 195.284 292.677 195.25 292.677 195.216C292.677 195.182 292.677 195.148 292.677 195.114C292.677 195.08 292.677 195.046 292.677 195.012C292.677 194.978 292.677 194.944 292.677 194.91C292.677 194.876 292.677 194.842 292.677 194.808C292.677 194.773 292.677 194.739 292.677 194.705C292.677 194.671 292.677 194.637 292.677 194.603C292.677 194.569 292.677 194.535 292.677 194.501C292.677 194.467 292.677 194.432 292.677 194.398C292.677 194.364 292.677 194.33 292.677 194.296C292.677 194.262 292.677 194.228 292.677 194.193C292.677 194.159 292.677 194.125 292.677 194.091C292.677 194.057 292.677 194.022 292.677 193.988C292.677 193.954 292.677 193.92 292.677 193.886C292.677 193.851 292.677 193.817 292.677 193.783C292.677 193.749 292.677 193.714 292.677 193.68C292.677 193.646 292.677 193.612 292.677 193.577C292.677 193.543 292.677 193.509 292.677 193.475C292.677 193.44 292.677 193.406 292.677 193.372C292.677 193.337 292.677 193.303 292.677 193.269C292.677 193.235 292.677 193.2 292.677 193.166C292.677 193.132 292.677 193.097 292.677 193.063C292.677 193.029 292.677 192.994 292.677 192.96C292.677 192.925 292.677 192.891 292.677 192.857C292.677 192.822 292.677 192.788 292.677 192.754C292.677 192.719 292.677 192.685 292.677 192.65C292.677 192.616 292.677 192.582 292.677 192.547C292.677 192.513 292.677 192.478 292.677 192.444C292.677 192.409 292.677 192.375 292.677 192.34C292.677 192.306 292.677 192.272 292.677 192.237C292.677 192.203 292.677 192.168 292.677 192.134C292.677 192.099 292.677 192.065 292.677 192.03C292.677 191.996 292.677 191.961 292.677 191.927C292.677 191.892 292.677 191.858 292.677 191.823C292.677 191.788 292.677 191.754 292.677 191.719C292.677 191.685 292.677 191.65 292.677 191.616C292.677 191.581 292.677 191.546 292.677 191.512C292.677 191.477 292.677 191.443 292.677 191.408C292.677 191.374 292.677 191.339 292.677 191.304C292.677 191.27 292.677 191.235 292.677 191.2C292.677 191.166 292.677 191.131 292.677 191.097C292.677 191.062 292.677 191.027 292.677 190.993C292.677 190.958 292.677 190.923 292.677 190.889C292.677 190.854 292.677 190.819 292.677 190.784C292.677 190.75 292.677 190.715 292.677 190.68C292.677 190.646 292.677 190.611 292.677 190.576C292.677 190.541 292.677 190.507 292.677 190.472C292.677 190.437 292.677 190.402 292.677 190.368C292.677 190.333 292.677 190.298 292.677 190.263C292.677 190.229 292.677 190.194 292.677 190.159C292.677 190.124 292.677 190.089 292.677 190.055C292.677 190.02 292.677 189.985 292.677 189.95C292.677 189.915 292.677 189.88 292.677 189.846C292.677 189.811 292.677 189.776 292.677 189.741C292.677 189.706 292.677 189.671 292.677 189.637C292.677 189.602 292.677 189.567 292.677 189.532C292.677 189.497 292.677 189.462 292.677 189.427C292.677 189.392 292.677 189.357 292.677 189.322C292.677 189.288 292.677 189.253 292.677 189.218C292.677 189.183 292.677 189.148 292.677 189.113C292.677 189.078 292.677 189.043 292.677 189.008C292.677 188.973 292.677 188.938 292.677 188.903C292.677 188.868 292.677 188.833 292.677 188.798C292.677 188.763 292.677 188.728 292.677 188.693C292.677 188.658 292.677 188.623 292.677 188.588C292.677 188.553 292.677 188.518 292.677 188.483C292.677 188.448 292.677 188.413 292.677 188.378C292.677 188.343 292.677 188.307 292.677 188.272C292.677 188.237 292.677 188.202 292.677 188.167C292.677 188.132 292.677 188.097 292.677 188.062C292.677 188.027 292.677 187.992 292.677 187.956C292.677 187.921 292.677 187.886 292.677 187.851C292.677 187.816 292.677 187.781 292.677 187.746C292.677 187.71 292.677 187.675 292.677 187.64C292.677 187.605 292.677 187.57 292.677 187.534C292.677 187.499 292.677 187.464 292.677 187.429C292.677 187.394 292.677 187.358 292.677 187.323C292.677 187.288 292.677 187.253 292.677 187.217C292.677 187.182 292.677 187.147 292.677 187.112C292.677 187.076 292.677 187.041 292.677 187.006C292.677 186.971 292.677 186.935 292.677 186.9C292.677 186.865 292.677 186.83 292.677 186.794C292.677 186.759 292.677 186.724 292.677 186.688C292.677 186.653 292.677 186.618 292.677 186.582C292.677 186.547 292.677 186.512 292.677 186.476C292.677 186.441 292.677 186.406 292.677 186.37C292.677 186.335 292.677 186.299 292.677 186.264C292.677 186.229 292.677 186.193 292.677 186.158C292.677 186.122 292.677 186.087 292.677 186.052C292.677 186.016 292.677 185.981 292.677 185.945C292.677 185.91 292.677 185.874 292.677 185.839C292.677 185.804 292.677 185.768 292.677 185.733C292.677 185.697 292.677 185.662 292.677 185.626C292.677 185.591 292.677 185.555 292.677 185.52C292.677 185.484 292.677 185.449 292.677 185.413C292.677 185.378 292.677 185.342 292.677 185.307C292.677 185.271 292.677 185.236 292.677 185.2H274.677ZM274.677 233.5V307.7H292.677V233.5H274.677ZM274.677 307.7C274.677 328.553 273.98 344.979 272.632 357.106L290.522 359.094C291.975 346.021 292.677 328.847 292.677 307.7H274.677ZM272.604 357.41C271.682 369.395 270.549 378.551 269.252 385.035L286.903 388.565C288.406 381.049 289.606 371.071 290.551 358.79L272.604 357.41ZM269.252 385.035C267.777 392.409 266.977 399.095 266.977 405H284.977C284.977 400.638 285.577 395.191 286.903 388.565L269.252 385.035ZM266.977 405C266.977 409.196 268.747 412.813 270.725 415.615C272.743 418.474 275.482 421.202 278.616 423.814L290.139 409.986C287.673 407.931 286.212 406.342 285.43 405.235C284.608 404.07 284.977 404.071 284.977 405H266.977ZM278.616 423.814C284.699 428.883 292.59 434.283 302.147 440.017L311.408 424.583C302.298 419.117 295.256 414.25 290.139 409.986L278.616 423.814ZM298.614 428.51L289.514 448.11L305.84 455.69L314.94 436.09L298.614 428.51ZM897.255 458.2L892.094 465.573L899.397 470.685L904.578 463.431L897.255 458.2ZM872.055 440L877.455 432.8L877.455 432.8L872.055 440ZM850.355 421.1L856.719 414.736L850.011 408.028L843.665 415.079L850.355 421.1ZM817.455 442.1L820.389 450.608L820.389 450.608L817.455 442.1ZM726.455 440L723.398 448.465L723.435 448.478L723.471 448.491L726.455 440ZM677.455 416.9L672.725 424.557L672.808 424.608L672.892 424.657L677.455 416.9ZM638.255 386.8L631.891 393.164L631.891 393.164L638.255 386.8ZM624.955 316.1L633.925 316.827L633.926 316.818L633.927 316.808L624.955 316.1ZM655.055 29.1L661.419 35.4639L661.458 35.4246L661.497 35.3849L655.055 29.1ZM781.755 11.6L777.828 19.6983L777.929 19.747L778.03 19.7933L781.755 11.6ZM824.455 38.9L818.598 45.7333L818.657 45.7839L818.717 45.8335L824.455 38.9ZM856.655 73.9L849.122 78.8252L849.187 78.9249L849.255 79.0229L856.655 73.9ZM867.155 136.2L876.091 137.272L876.091 137.272L867.155 136.2ZM860.855 169.8L858.587 178.51L867.292 180.777L869.563 172.072L860.855 169.8ZM793.655 152.3L784.923 150.117L782.762 158.763L791.387 161.01L793.655 152.3ZM734.155 71.1L731.412 62.5281L731.36 62.5447L731.309 62.5618L734.155 71.1ZM708.255 94.2L716.24 98.3522L716.24 98.3522L708.255 94.2ZM696.355 335L687.452 333.681L687.431 333.824L687.414 333.968L696.355 335ZM783.155 368.6L788.208 376.047L788.298 375.987L788.386 375.924L783.155 368.6ZM804.855 271.3L813.795 272.332L814.953 262.3H804.855V271.3ZM763.555 271.3L756.304 276.632L759.001 280.3H763.555V271.3ZM728.555 223.7L720.411 219.868L718.13 224.715L721.304 229.031L728.555 223.7ZM734.155 211.8V202.8H728.443L726.011 207.968L734.155 211.8ZM833.555 211.8L840.755 206.4L838.055 202.8H833.555V211.8ZM875.555 267.8L884.51 268.696L884.859 265.206L882.755 262.4L875.555 267.8ZM871.355 322.4L880.342 322.886L880.342 322.873L871.355 322.4ZM878.355 409.9L870.745 414.706L870.895 414.943L871.059 415.169L878.355 409.9ZM911.255 438.6L918.578 443.831L923.945 436.318L916.297 431.145L911.255 438.6ZM902.416 450.827C893.146 444.338 884.828 438.33 877.455 432.8L866.655 447.2C874.215 452.87 882.696 458.995 892.094 465.573L902.416 450.827ZM877.455 432.8C870.349 427.47 863.436 421.453 856.719 414.736L843.991 427.464C851.274 434.747 858.828 441.33 866.655 447.2L877.455 432.8ZM843.665 415.079C836.421 423.128 826.816 429.352 814.521 433.592L820.389 450.608C835.16 445.515 847.488 437.739 857.044 427.121L843.665 415.079ZM814.521 433.592C802.054 437.89 788.128 440.1 772.655 440.1V458.1C789.848 458.1 805.789 455.643 820.389 450.608L814.521 433.592ZM772.655 440.1C760.425 440.1 746.061 437.349 729.438 431.509L723.471 448.491C741.381 454.784 757.818 458.1 772.655 458.1V440.1ZM729.511 431.535C713.25 425.663 697.42 418.203 682.018 409.143L672.892 424.657C689.223 434.264 706.059 442.204 723.398 448.465L729.511 431.535ZM682.184 409.243C666.752 399.711 654.276 390.094 644.619 380.436L631.891 393.164C642.767 404.04 656.424 414.489 672.725 424.557L682.184 409.243ZM644.619 380.436C634.77 370.588 631.855 363.709 631.855 359.5H613.855C613.855 371.158 621.206 382.479 631.891 393.164L644.619 380.436ZM631.855 359.5C631.855 348.162 632.536 333.956 633.925 316.827L615.984 315.373C614.573 332.778 613.855 347.505 613.855 359.5H631.855ZM633.927 316.808C635.348 298.807 636.055 279.435 636.055 258.7H618.055C618.055 279.032 617.361 297.927 615.983 315.392L633.927 316.808ZM636.055 258.7V127.8H618.055V258.7H636.055ZM636.055 127.8C636.055 81.335 645.356 51.527 661.419 35.4639L648.691 22.736C627.42 44.0063 618.055 79.9983 618.055 127.8H636.055ZM661.497 35.3849C677.929 18.5422 702.777 9.4 737.655 9.4V-8.6C699.732 -8.6 669.514 1.39111 648.613 22.815L661.497 35.3849ZM737.655 9.4C750.026 9.4 763.385 12.6954 777.828 19.6983L785.681 3.50165C769.325 -4.42877 753.284 -8.6 737.655 -8.6V9.4ZM778.03 19.7933C792.646 26.4365 806.163 35.0751 818.598 45.7333L830.312 32.0667C816.613 20.3248 801.664 10.7634 785.479 3.40668L778.03 19.7933ZM818.717 45.8335C831.696 56.5754 841.774 67.5877 849.122 78.8252L864.187 68.9747C855.668 55.9456 844.28 43.6246 830.193 31.9664L818.717 45.8335ZM849.255 79.0229C857.049 90.2815 860.255 99.7045 860.255 107.5H878.255C878.255 94.7621 873.06 81.7852 864.054 68.7771L849.255 79.0229ZM860.255 107.5C860.255 114.466 859.597 123.64 858.219 135.128L876.091 137.272C877.512 125.427 878.255 115.467 878.255 107.5H860.255ZM858.219 135.128C856.865 146.414 854.837 157.212 852.146 167.528L869.563 172.072C872.472 160.922 874.645 149.32 876.091 137.272L858.219 135.128ZM863.123 161.09L795.923 143.59L791.387 161.01L858.587 178.51L863.123 161.09ZM802.386 154.483C808.58 129.707 811.755 107.254 811.755 87.2H793.755C793.755 105.412 790.863 126.359 784.923 150.117L802.386 154.483ZM811.755 87.2C811.755 77.572 809.572 67.6281 801.447 62.2115L791.462 77.1884C791.738 77.3718 793.755 79.0946 793.755 87.2H811.755ZM801.447 62.2115C794.841 57.8072 784.961 56.5 774.055 56.5V74.5C784.615 74.5 789.669 75.9928 791.462 77.1884L801.447 62.2115ZM774.055 56.5C758.387 56.5 744.135 58.4569 731.412 62.5281L736.898 79.6718C747.508 76.2764 759.856 74.5 774.055 74.5V56.5ZM731.309 62.5618C717.631 67.1212 707.281 76.5645 700.27 90.0478L716.24 98.3522C721.362 88.5022 728.279 82.5454 737.001 79.6381L731.309 62.5618ZM700.27 90.0478C693.193 103.656 690.155 123.148 690.155 147.4H708.155C708.155 124.052 711.183 108.077 716.24 98.3522L700.27 90.0478ZM690.155 147.4V282.5H708.155V147.4H690.155ZM690.155 282.5C690.155 304.736 689.223 321.726 687.452 333.681L705.258 336.319C707.22 323.074 708.155 305.064 708.155 282.5H690.155ZM687.414 333.968C686.006 346.175 685.255 355.695 685.255 362.3H703.255C703.255 356.771 703.904 348.092 705.295 336.032L687.414 333.968ZM685.255 362.3C685.255 370.999 688.26 378.85 695.299 384.177C701.865 389.145 710.643 390.9 720.155 390.9V372.9C712.4 372.9 708.228 371.388 706.161 369.823C704.566 368.617 703.255 366.668 703.255 362.3H685.255ZM720.155 390.9C749.596 390.9 772.853 386.467 788.208 376.047L778.101 361.153C767.323 368.467 748.58 372.9 720.155 372.9V390.9ZM788.386 375.924C804.409 364.478 811.755 346.661 811.755 324.5H793.755C793.755 342.472 788.034 354.055 777.924 361.276L788.386 375.924ZM811.755 324.5C811.755 301.261 812.456 283.941 813.795 272.332L795.914 270.268C794.454 282.925 793.755 301.072 793.755 324.5H811.755ZM804.855 262.3H763.555V280.3H804.855V262.3ZM770.806 265.968L735.806 218.368L721.304 229.031L756.304 276.632L770.806 265.968ZM736.698 227.532L742.298 215.632L726.011 207.968L720.411 219.868L736.698 227.532ZM734.155 220.8H833.555V202.8H734.155V220.8ZM826.355 217.2L868.355 273.2L882.755 262.4L840.755 206.4L826.355 217.2ZM866.599 266.904C864.719 285.704 863.308 304.045 862.367 321.927L880.342 322.873C881.268 305.288 882.657 287.229 884.51 268.696L866.599 266.904ZM862.368 321.914C861.423 339.387 860.955 359.856 860.955 383.3H878.955C878.955 360.077 879.419 339.946 880.342 322.886L862.368 321.914ZM860.955 383.3C860.955 394.158 864.405 404.667 870.745 414.706L885.964 405.094C881.104 397.399 878.955 390.176 878.955 383.3H860.955ZM871.059 415.169C878.063 424.867 890.083 435.144 906.212 446.055L916.297 431.145C900.693 420.59 890.78 411.733 885.651 404.631L871.059 415.169ZM903.931 433.369L889.931 452.969L904.578 463.431L918.578 443.831L903.931 433.369Z" fill="#C8B704" mask="url(#path-1-outside-1_151_4)"/>
<defs>
<filter id="filter0_i_151_4" x="0.193748" y="0.400024" width="911.061" height="461.8" filterUnits="userSpaceOnUse" color-interpolation-filters="sRGB">
<feFlood flood-opacity="0" result="BackgroundImageFix"/>
<feBlend mode="normal" in="SourceGraphic" in2="BackgroundImageFix" result="shape"/>
<feColorMatrix in="SourceAlpha" type="matrix" values="0 0 0 0 0 0 0 0 0 0 0 0 0 0 0 0 0 0 127 0" result="hardAlpha"/>
<feOffset dy="4"/>
<feGaussianBlur stdDeviation="2"/>
<feComposite in2="hardAlpha" operator="arithmetic" k2="-1" k3="1"/>
<feColorMatrix type="matrix" values="0 0 0 0 0 0 0 0 0 0 0 0 0 0 0 0 0 0 0.25 0"/>
<feBlend mode="normal" in2="shape" result="effect1_innerShadow_151_4"/>
</filter>
</defs>
</svg>
